<?xml version="1.0" standalone="no"?>
<!DOCTYPE svg PUBLIC "-//W3C//DTD SVG 20010904//EN"
 "http://www.w3.org/TR/2001/REC-SVG-20010904/DTD/svg10.dtd">
<svg version="1.0" xmlns="http://www.w3.org/2000/svg"
 width="128.000000pt" height="128.000000pt" viewBox="0 0 128.000000 128.000000"
 preserveAspectRatio="xMidYMid meet">
<metadata>
Created by potrace 1.14, written by Peter Selinger 2001-2017
</metadata>
<g transform="translate(0.000000,128.000000) scale(0.100000,-0.100000)"
fill="#000000" stroke="none">
<path d="M540 1188 c-115 -12 -226 -47 -362 -115 -67 -33 -68 -34 -68 -73 0
-22 2 -40 5 -40 3 0 29 13 58 29 287 162 617 166 910 14 37 -20 70 -34 72 -31
3 3 7 19 9 38 4 32 3 33 -88 75 -196 93 -350 122 -536 103z"/>
<path d="M505 1034 c-11 -2 -50 -11 -87 -20 -81 -18 -148 -45 -246 -99 l-72
-39 0 -44 c0 -34 3 -42 13 -34 28 22 150 84 214 108 124 47 345 61 503 33 77
-14 173 -48 249 -89 30 -17 56 -28 58 -26 2 2 5 19 6 37 2 33 0 35 -99 84
-134 68 -216 87 -384 91 -74 2 -144 1 -155 -2z"/>
<path d="M495 848 c-105 -9 -221 -48 -320 -106 l-80 -48 -3 -49 c-3 -47 -2
-48 15 -34 41 36 143 89 218 115 78 26 86 27 310 28 212 0 236 -2 305 -23 41
-12 99 -36 128 -53 28 -16 52 -26 53 -21 8 75 9 71 -35 97 -55 32 -138 65
-202 80 -77 19 -261 25 -389 14z"/>
<path d="M353 655 c-62 -14 -162 -62 -221 -105 -38 -27 -42 -34 -42 -74 l0
-44 64 43 c122 82 239 109 352 82 73 -16 180 -16 284 2 92 16 175 3 262 -40
32 -16 61 -29 65 -29 3 0 7 15 9 34 2 43 -11 56 -97 95 -88 40 -160 51 -276
44 -110 -7 -100 -7 -243 0 -64 2 -125 0 -157 -8z"/>
<path d="M289 491 c-38 -14 -121 -57 -168 -89 -7 -5 -15 -32 -18 -60 l-5 -51
69 45 c143 94 226 97 395 15 35 -17 70 -31 78 -31 8 0 53 19 100 42 78 38 92
42 165 42 82 1 138 -17 207 -65 31 -22 35 -18 34 36 l-1 40 -87 44 c-75 38
-96 44 -160 47 -52 2 -90 -3 -133 -18 -82 -27 -164 -27 -250 1 -80 25 -157 26
-226 2z"/>
<path d="M289 350 c-35 -10 -138 -66 -167 -90 -19 -16 -23 -27 -20 -65 l3 -46
35 26 c162 122 282 114 452 -27 l47 -39 63 51 c87 70 140 94 218 98 60 4 71 1
142 -36 74 -38 77 -39 80 -18 7 50 -3 72 -48 99 -135 81 -246 75 -391 -24 -53
-37 -74 -36 -129 1 -104 73 -200 96 -285 70z"/>
</g>
</svg>
